PathFileType	4	(X/Y/Z)	C:/Users/opensim2020/Desktop/walking_exp_matlab/subject03_walking08_straight_01.trc	
DataRate	CameraRate	NumFrames	NumMarkers	Units	OrigDataRate	OrigDataStartFrame	OrigNumFrames	
100.00	100.00	5	51	mm	100.00	877	451	
Frame#	Time	LFHD			RFHD			LBHD			RBHD			C7			T10			CLAV			STRN			RBAK			LSHO			LUPA			LELB			LFRM			LWRA			LWRB			LFIN			RSHO			RUPA			RELB			RFRM			RWRA			RWRB			RFIN			LASI			RASI			LPSI			RPSI			LTHI			LKNE			LTIB			LANK			LHEE			LTOE			RTHI			RKNE			RTIB			RANK			RHEE			RTOE			*39			*40			*41			*42			*43			*44			*45			*46			*47			*48			*49			*50			
		X1	Y1	Z1	X2	Y2	Z2	X3	Y3	Z3	X4	Y4	Z4	X5	Y5	Z5	X6	Y6	Z6	X7	Y7	Z7	X8	Y8	Z8	X9	Y9	Z9	X10	Y10	Z10	X11	Y11	Z11	X12	Y12	Z12	X13	Y13	Z13	X14	Y14	Z14	X15	Y15	Z15	X16	Y16	Z16	X17	Y17	Z17	X18	Y18	Z18	X19	Y19	Z19	X20	Y20	Z20	X21	Y21	Z21	X22	Y22	Z22	X23	Y23	Z23	X24	Y24	Z24	X25	Y25	Z25	X26	Y26	Z26	X27	Y27	Z27	X28	Y28	Z28	X29	Y29	Z29	X30	Y30	Z30	X31	Y31	Z31	X32	Y32	Z32	X33	Y33	Z33	X34	Y34	Z34	X35	Y35	Z35	X36	Y36	Z36	X37	Y37	Z37	X38	Y38	Z38	X39	Y39	Z39	X40	Y40	Z40	X41	Y41	Z41	X42	Y42	Z42	X43	Y43	Z43	X44	Y44	Z44	X45	Y45	Z45	X46	Y46	Z46	X47	Y47	Z47	X48	Y48	Z48	X49	Y49	Z49	X50	Y50	Z50	X51	Y51	Z51	

395	3.940	-1076.46692	1125.06067	1602.60461	-945.54413	1104.39917	1611.28918	-1092.16479	991.88971	1584.14343	-962.67682	976.54895	1591.57312	-1035.66650	930.68231	1419.90723	-1038.99219	898.39392	1102.14001	-1023.12585	1049.40112	1340.28735	-1025.99780	1093.72668	1176.65076	-944.56683	866.61694	1240.25781	-1180.72974	1019.78455	1376.61914	-1260.07385	1047.74683	1186.46838	-1278.48865	1080.42712	1069.57593	-1280.25171	1136.55969	952.00555	-1253.17444	1181.07129	841.09680	-1305.69739	1162.32043	843.61505	-1299.17017	1198.53101	767.61182	-867.42682	989.50116	1363.77539	-795.69177	989.67810	1140.09180	-781.43896	1007.65918	1029.32495	-778.57452	1030.60022	894.39026	-811.55267	1068.61621	801.22870	-770.86255	1033.81543	794.42444	-775.87317	1062.28711	726.29675	-1150.49573	1072.45972	941.37732	-911.14813	1063.24683	940.42236	-1105.56592	908.30951	965.28619	-956.66528	903.65118	966.80115	-1182.95618	1009.20886	637.62408	-1138.14233	1007.28961	460.35239	-1138.12500	948.70184	273.43460	-1093.27808	915.83582	66.68780	-1059.11707	873.47168	32.70456	-1071.07227	1067.48120	29.44432	-863.51111	1072.33301	649.78003	-891.10193	1138.20020	481.75726	-888.91711	1063.34363	303.96802	-932.60681	992.94104	99.18842	-986.40155	944.83301	73.85517	-943.61975	1119.29919	38.70845	-1039.08569	1049.47412	1679.12915																																	 
396	3.950	-1075.24207	1132.07251	1601.93909	-944.42346	1111.16650	1610.34827	-1091.43945	998.99017	1584.00037	-962.02423	983.09503	1590.96130	-1035.22632	937.41107	1419.33679	-1039.10608	904.85901	1101.66931	-1022.89893	1055.85718	1339.81360	-1026.13794	1100.21338	1176.16846	-945.08411	872.89825	1239.50830	-1180.46252	1026.61938	1376.52600	-1260.19885	1056.10266	1187.07532	-1278.74622	1089.97351	1070.52222	-1280.46118	1148.07385	953.98358	-1253.26770	1194.75049	844.10492	-1305.59802	1175.81311	845.97748	-1298.78809	1213.40613	770.69556	-867.29327	995.42169	1362.93066	-795.32892	994.99542	1139.35864	-780.85840	1012.64398	1028.49817	-777.70428	1034.71545	893.43304	-810.66083	1072.08875	800.03149	-769.62213	1037.34009	793.44684	-774.96655	1065.21069	724.91235	-1150.73254	1078.47620	940.70093	-911.64240	1069.97290	940.09888	-1105.58789	914.60248	964.75476	-956.68402	910.23108	966.42340	-1182.78015	1014.11646	637.20038	-1138.23682	1010.43719	459.96930	-1138.14331	950.46130	273.42825	-1093.24280	916.00397	66.92105	-1058.94519	873.06201	33.23333	-1071.09131	1067.48486	29.40312	-863.59406	1080.38708	649.66180	-892.36530	1146.40723	481.87885	-890.12122	1078.53931	301.71240	-934.43445	1017.29968	94.15413	-988.36542	970.43933	66.81339	-944.89832	1146.17517	39.06576	-1038.09631	1056.87598	1678.69299																																	 
397	3.960	-1074.13000	1139.24133	1601.46887	-943.22034	1117.93286	1609.33325	-1090.66125	1006.08319	1583.81543	-961.20178	989.92297	1590.34204	-1035.40955	943.86163	1419.08618	-1039.10815	911.30988	1101.19897	-1022.61169	1062.35425	1339.23865	-1026.31982	1106.73535	1175.66492	-945.55499	879.17285	1238.77722	-1180.07068	1033.43335	1376.32874	-1260.24194	1064.29541	1187.62000	-1278.98523	1099.49353	1071.52185	-1280.47327	1159.36877	955.92444	-1252.95776	1208.10559	847.05707	-1305.24524	1188.99658	848.33435	-1298.10913	1228.08447	773.83118	-867.15839	1001.43475	1362.02112	-794.97253	1000.35834	1138.54529	-780.35480	1017.72894	1027.69092	-777.03638	1038.99878	892.48157	-809.79205	1075.70691	798.75598	-768.72723	1041.08325	792.39484	-774.18921	1068.26123	723.53955	-1150.90149	1085.60364	940.73962	-912.06915	1076.70056	939.63654	-1105.48633	920.89673	964.25537	-956.64874	916.81073	965.91187	-1182.67834	1018.95709	636.71857	-1138.24500	1013.49231	459.51263	-1138.10156	952.12036	273.40768	-1093.18103	916.15906	67.19552	-1058.89697	873.04730	33.51939	-1071.09387	1067.56653	29.42777	-863.64563	1087.23450	649.23474	-893.33411	1154.80835	482.05582	-891.35321	1093.47424	299.55780	-935.96991	1041.52075	89.56463	-990.15125	995.84448	60.61044	-946.23883	1172.48950	39.47451	-1036.56726	1063.86731	1678.13855																																	 
398	3.970	-1072.86719	1146.29907	1600.90710	-941.97327	1124.60791	1608.29053	-1089.84277	1013.13007	1583.54102	-960.41901	996.56158	1589.57983	-1035.16174	950.53662	1418.57825	-1039.01038	917.83124	1100.67334	-1022.10321	1068.49231	1338.53333	-1026.43970	1113.29712	1175.05334	-945.95569	885.50812	1238.04749	-1179.79858	1040.23035	1376.21155	-1260.18799	1072.23840	1188.02466	-1279.12781	1108.66760	1072.29211	-1280.34058	1170.41101	957.77734	-1252.28296	1221.17175	849.99463	-1304.62964	1201.86084	850.55902	-1297.17883	1242.52515	776.92725	-866.94037	1007.48828	1361.08020	-794.65503	1005.69946	1137.70081	-779.89386	1022.87897	1026.76001	-776.37445	1043.31189	891.44482	-808.96069	1079.61511	797.55878	-767.60071	1044.67310	791.33942	-773.69153	1071.50122	722.20453	-1151.89429	1090.54578	939.15735	-912.37823	1083.41479	939.05975	-1105.44104	927.20386	963.62805	-956.51074	923.41058	965.30212	-1182.44922	1023.75494	636.25574	-1138.21643	1016.50952	459.15564	-1138.06653	953.73779	273.40570	-1093.15894	916.26062	67.36850	-1058.83679	873.05389	33.81239	-1071.43152	1067.97961	29.90765	-863.66949	1093.90747	648.67133	-894.37592	1162.74792	481.96826	-892.45398	1108.28308	297.71399	-937.59216	1065.44092	85.41991	-992.22363	1021.21661	54.83145	-947.39325	1198.28784	40.11759	-1035.24622	1070.96667	1677.60278																																	 
399	3.980	-1071.48926	1153.30652	1600.33557	-940.71899	1131.29932	1607.24695	-1088.97107	1020.21130	1583.32544	-959.58130	1003.22791	1588.79126	-1034.85266	957.15778	1418.03076	-1038.86438	924.42004	1100.11340	-1021.81885	1075.10181	1337.88525	-1026.54944	1119.91455	1174.42200	-946.23981	891.86005	1237.32300	-1179.44727	1047.05688	1375.97717	-1260.25073	1080.27466	1188.39868	-1279.15796	1117.66565	1073.03735	-1280.04126	1181.23853	959.56476	-1251.48364	1233.92737	852.84808	-1303.87390	1214.72607	852.87494	-1296.03687	1256.75952	780.07483	-866.69299	1013.61188	1360.13574	-794.36768	1011.16541	1136.83496	-779.52362	1028.12195	1025.86047	-775.75549	1047.72559	890.39478	-808.27655	1083.32568	796.18982	-766.82245	1048.60120	790.25482	-773.04028	1074.71704	720.82611	-1151.92920	1096.64771	938.45709	-912.65002	1090.14368	938.29901	-1105.28821	933.57465	963.00708	-956.40521	930.03223	964.61804	-1182.29102	1028.47607	635.74518	-1138.17773	1019.55634	458.77716	-1138.05176	955.32593	273.35751	-1093.04834	916.46368	67.60948	-1058.72510	873.07965	34.15427	-1071.17737	1067.65344	29.56713	-863.66003	1100.36292	647.96368	-895.54492	1170.21545	481.61737	-893.52228	1122.69080	296.03357	-938.96478	1089.19043	82.16212	-993.54150	1045.83508	50.28058	-948.46759	1223.53601	40.96489	-1033.84717	1077.99976	1677.02698																																	 
